<svg xmlns="http://www.w3.org/2000/svg" viewBox="0 0 1480 860" role="img" aria-labelledby="title desc">
  <title id="title">Gravy Raven hero image</title>
  <desc id="desc">A wide monochrome editorial poster study with zine grain, a figure silhouette, text panels, and restrained red notation.</desc>
  <defs>
    <pattern id="grain" width="12" height="12" patternUnits="userSpaceOnUse">
      <circle cx="2" cy="3" r="1" fill="#11110f" opacity=".16"/>
      <circle cx="9" cy="8" r="1" fill="#11110f" opacity=".11"/>
      <circle cx="5" cy="10" r=".7" fill="#11110f" opacity=".18"/>
    </pattern>
    <pattern id="stripe" width="18" height="18" patternUnits="userSpaceOnUse" patternTransform="rotate(-35)">
      <rect width="8" height="18" fill="#11110f"/>
    </pattern>
  </defs>
  <rect width="1480" height="860" fill="#0f100d"/>
  <rect x="70" y="58" width="1340" height="744" rx="12" fill="#e8e2d5"/>
  <rect x="102" y="92" width="668" height="674" fill="#141411"/>
  <path d="M330 142c105 22 184 105 218 215 38 124-8 260-123 342-89 63-195 79-272 44 81-57 119-136 105-235-11-76-65-134-88-205-23-72 24-138 160-161Z" fill="#d8d2c6"/>
  <path d="M164 651c124-72 270-72 437 0l37 94H130l34-94Z" fill="#080807" opacity=".9"/>
  <rect x="818" y="96" width="446" height="22" fill="#141411"/>
  <rect x="818" y="139" width="340" height="10" fill="#141411"/>
  <rect x="818" y="166" width="384" height="10" fill="#141411"/>
  <rect x="818" y="193" width="276" height="10" fill="#141411"/>
  <text x="816" y="294" fill="#141411" font-family="Arial, sans-serif" font-size="78" font-weight="800" letter-spacing="0">STARLIGHT</text>
  <text x="821" y="354" fill="#141411" font-family="Arial, sans-serif" font-size="44" font-weight="800">FADE AWAY</text>
  <rect x="820" y="392" width="480" height="112" fill="none" stroke="#141411" stroke-width="6"/>
  <rect x="820" y="548" width="220" height="138" fill="none" stroke="#141411" stroke-width="6"/>
  <rect x="1082" y="548" width="218" height="138" fill="url(#stripe)" opacity=".82"/>
  <text x="1328" y="210" fill="#a53f36" font-family="Arial, sans-serif" font-size="22" font-weight="800" transform="rotate(90 1328 210)">RAVEN OBSERVATION LOG</text>
  <g fill="#141411" font-family="Arial, sans-serif" font-size="18" font-weight="700" opacity=".76">
    <text x="844" y="438">MONOCHROME ZINE POSTER</text>
    <text x="844" y="468">TYPOGRAPHY SYSTEM / CHARACTER ARCHIVE</text>
    <text x="844" y="716">PRINT FIELD / LOW CONTRAST / ONE RED SIGNAL</text>
  </g>
  <rect x="70" y="58" width="1340" height="744" fill="url(#grain)" opacity=".42"/>
  <g opacity=".12" stroke="#141411" stroke-width="2">
    <path d="M70 182h1340M70 306h1340M70 430h1340M70 554h1340M70 678h1340"/>
    <path d="M210 58v744M350 58v744M490 58v744M630 58v744M770 58v744M910 58v744M1050 58v744M1190 58v744M1330 58v744"/>
  </g>
</svg>
